<?xml version="1.0" encoding="UTF-8" standalone="no"?>
<!-- Uploaded to: SVG Repo, www.svgrepo.com, Generator: SVG Repo Mixer Tools -->

<svg
   version="1.1"
   id="Capa_1"
   viewBox="0 0 247.353 247.353"
   xml:space="preserve"
   sodipodi:docname="wedding-gifts.svg"
   inkscape:version="1.4.1-rc (d9e8dc1fe0, 2025-03-10)"
   xmlns:inkscape="http://www.inkscape.org/namespaces/inkscape"
   xmlns:sodipodi="http://sodipodi.sourceforge.net/DTD/sodipodi-0.dtd"
   xmlns="http://www.w3.org/2000/svg"
   xmlns:svg="http://www.w3.org/2000/svg"><defs
   id="defs51" /><sodipodi:namedview
   id="namedview51"
   pagecolor="#ffffff"
   bordercolor="#000000"
   borderopacity="0.25"
   inkscape:showpageshadow="2"
   inkscape:pageopacity="0.0"
   inkscape:pagecheckerboard="0"
   inkscape:deskcolor="#d1d1d1"
   inkscape:zoom="4.4470858"
   inkscape:cx="159.76755"
   inkscape:cy="123.6765"
   inkscape:window-width="1033"
   inkscape:window-height="991"
   inkscape:window-x="26"
   inkscape:window-y="23"
   inkscape:window-maximized="0"
   inkscape:current-layer="Capa_1" />
<g
   id="g51">
	<g
   id="g50">
		<g
   id="g15">
			<path
   style="fill-rule:evenodd;clip-rule:evenodd;fill:#FFF4C7;"
   d="M164.019,62.261c13.527-11.983,45.123-3.673,41.484-24.789     c-6.09,7.086-8.498,4.693-17.881,4.799C178.162,42.378,166.691,47.466,164.019,62.261z"
   id="path1" />
			<path
   style="fill-rule:evenodd;clip-rule:evenodd;fill:#FFF4C7;"
   d="M163.429,63.247c11.344-14.067,43.883-11.131,36.779-31.348     c-4.826,8-7.6,6.042-16.832,7.708C174.066,41.288,163.601,48.214,163.429,63.247z"
   id="path2" />
			<g
   id="g3">
				<polygon
   style="fill-rule:evenodd;clip-rule:evenodd;fill:#323232;"
   points="184.126,166.239 201.162,155.313 211.853,148.149       215.419,145.768 207.164,133.483 178.515,154.666     "
   id="polygon2" />
				<polygon
   style="fill-rule:evenodd;clip-rule:evenodd;fill:#323232;"
   points="215.419,145.768 215.304,145.597 211.851,148.15       211.853,148.149     "
   id="polygon3" />
			</g>
			<g
   id="g4">
				<path
   style="fill-rule:evenodd;clip-rule:evenodd;fill:#323232;"
   d="M145.417,165.345l38.709,0.895l-2.365-12.617l-36.617,2.77      C145.236,159.376,145.326,162.361,145.417,165.345z"
   id="path3" />
				
					<ellipse
   transform="matrix(0.9995 -0.0307 0.0307 0.9995 -5.0085 4.5117)"
   style="fill-rule:evenodd;clip-rule:evenodd;fill:#1A1A1A;"
   cx="144.644"
   cy="165.609"
   rx="4.619"
   ry="9.197"
   id="ellipse3" />
			</g>
			<g
   id="g5">
				<polygon
   style="fill-rule:evenodd;clip-rule:evenodd;fill:#323232;"
   points="219.734,174.359 218.705,154.149 217.79,141.311       217.494,137.032 202.732,138.102 206.902,173.487     "
   id="polygon4" />
				<polygon
   style="fill-rule:evenodd;clip-rule:evenodd;fill:#323232;"
   points="217.494,137.032 217.289,137.047 217.79,141.313       217.79,141.311     "
   id="polygon5" />
			</g>
			<g
   id="g6">
				<path
   style="fill-rule:evenodd;clip-rule:evenodd;fill:#323232;"
   d="M199.744,207.519l19.99-33.16l-12.129-4.208l-15.77,33.163      C194.472,204.716,197.109,206.118,199.744,207.519z"
   id="path5" />
				
					<ellipse
   transform="matrix(0.4694 -0.883 0.883 0.4694 -78.0431 286.7715)"
   style="fill-rule:evenodd;clip-rule:evenodd;fill:#1A1A1A;"
   cx="199.589"
   cy="208.322"
   rx="4.619"
   ry="9.198"
   id="ellipse5" />
			</g>
			
				<rect
   x="178.572"
   y="82.423"
   transform="matrix(0.9366 -0.3503 0.3503 0.9366 -18.2092 69.8259)"
   style="fill-rule:evenodd;clip-rule:evenodd;fill:#FFFFFF;"
   width="10.697"
   height="5.655"
   id="rect6" />
			<polygon
   style="fill-rule:evenodd;clip-rule:evenodd;fill:#1A1A1A;"
   points="218.38,134.016 195.162,142.7 196.615,147.509      220.122,138.718    "
   id="polygon6" />
			<path
   style="fill-rule:evenodd;clip-rule:evenodd;fill:#FFFFFF;"
   d="M185.117,83.253c7.949,17.67,13.574,24.441,24.053,27.777     l-3.418-6.689l-14.383-16.996l-3.43-6.616L185.117,83.253z"
   id="path6" />
			<g
   id="g8">
				<path
   style="fill-rule:evenodd;clip-rule:evenodd;fill:#1A1A1A;"
   d="M186.308,98.608c-12.805,4.196-30.363,13.269-42.557,24.781      l-3.086-3.41c9.928-12.243,27.852-25.838,37.322-30.21C189.298,84.548,199.224,94.376,186.308,98.608z"
   id="path7" />
				<path
   style="fill-rule:evenodd;clip-rule:evenodd;fill:#FFD8B8;"
   d="M144.679,127.866c-0.885,1.434-1.838,1.434-2.57,0.491      c-1.031,2.274-3.541,3.109-4.656,2.421c-2.17-1.341-2.453-4.817-0.631-7.767c1.82-2.949,5.057-4.253,7.227-2.912      C146.218,121.44,146.501,124.917,144.679,127.866z"
   id="path8" />
			</g>
			<polygon
   style="fill-rule:evenodd;clip-rule:evenodd;fill:#323232;"
   points="196.128,145.911 178.644,86.519 186.835,85.363      208.642,109.999 219.523,137.038    "
   id="polygon8" />
			<path
   style="fill-rule:evenodd;clip-rule:evenodd;fill:#1A1A1A;"
   d="M188.757,88.733c13.338,1.928,33.1,1.6,49.137-3.299     l1.25,4.425c-14.334,6.56-36.432,10.778-46.857,10.489C179.833,100.003,175.306,86.788,188.757,88.733z"
   id="path9" />
			<path
   style="fill-rule:evenodd;clip-rule:evenodd;fill:#FFD8B8;"
   d="M239.05,81.011c1.43-0.892,2.283-0.467,2.521,0.701     c1.934-1.579,4.553-1.212,5.246-0.1c1.35,2.165,0.059,5.406-2.883,7.238c-2.941,1.834-6.42,1.564-7.77-0.601     C234.816,86.084,236.107,82.843,239.05,81.011z"
   id="path10" />
			<g
   id="g12">
				
					<ellipse
   transform="matrix(-0.1479 -0.989 0.989 -0.1479 147.0133 251.8295)"
   style="fill-rule:evenodd;clip-rule:evenodd;fill:#FFD8B8;"
   cx="181.995"
   cy="62.582"
   rx="21.443"
   ry="22.153"
   id="ellipse10" />
				<path
   style="fill-rule:evenodd;clip-rule:evenodd;fill:#FFF4C7;"
   d="M195.947,45.794c-3.291,15.5-29.586,25.203-23.564,36.207      c-6.402-2.938-11.201-8.82-12.297-16.145c-1.75-11.711,6.639-22.673,18.738-24.482      C185.191,40.423,191.316,42.195,195.947,45.794z"
   id="path11" />
				
					<ellipse
   transform="matrix(-0.3673 -0.9301 0.9301 -0.3673 179.4014 256.6511)"
   style="fill-rule:evenodd;clip-rule:evenodd;fill:#FFD8B8;"
   cx="176.996"
   cy="67.306"
   rx="6.317"
   ry="4.044"
   id="ellipse11" />
				
					<ellipse
   transform="matrix(-0.148 -0.989 0.989 -0.148 167.8083 264.9997)"
   style="fill-rule:evenodd;clip-rule:evenodd;fill:#666666;"
   cx="198.052"
   cy="60.217"
   rx="2.706"
   ry="1.546"
   id="ellipse12" />
				<path
   style="fill-rule:evenodd;clip-rule:evenodd;fill:#E7B791;"
   d="M203.32,68.162c-3.414,0.474-6.818,0.779-9.078,0.769      c2.102,1.873,4.795,2.895,7.523,3.122C202.408,70.813,202.931,69.511,203.32,68.162z"
   id="path12" />
			</g>
			<g
   id="g14">
				<path
   style="fill-rule:evenodd;clip-rule:evenodd;fill:#212E36;"
   d="M190.331,83.923c-0.764-0.386-3.154-2.036-3.076-1.33      c0.105,0.973,2.572,5.535,3.328,6.156c0.549,0.451,0.477-2.452,0.572-3.302C191.06,84.977,190.671,84.26,190.331,83.923z"
   id="path13" />
				<path
   style="fill-rule:evenodd;clip-rule:evenodd;fill:#405059;"
   d="M190.808,83.203l-0.533,0.288      c-0.137,0.074-0.188,0.246-0.113,0.383l0.941,1.742c0.074,0.136,0.246,0.188,0.383,0.113l0.533-0.288      c0.137-0.073,0.188-0.246,0.113-0.383l-0.941-1.741C191.117,83.181,190.945,83.13,190.808,83.203z"
   id="path14" />
			</g>
			<path
   style="fill-rule:evenodd;clip-rule:evenodd;fill:#FFF4C7;"
   d="M200.453,50.078c-4.533,2.122-8.686,4.56-13.371,9.56     c-5.148,5.494-21.439-13.891-12.832-17.237C182.857,39.054,193.38,37.048,200.453,50.078z"
   id="path15" />
		</g>
		<g
   id="g49">
			<g
   id="g38">
				<g
   id="g17">
					<path
   style="fill-rule:evenodd;clip-rule:evenodd;fill:#FFD8B8;"
   d="M95.729,105.474c-12.119,2.032-29.192,7.812-41.76,16.524       l-2.315-3.496c10.626-9.682,28.645-19.488,37.781-22.136C100.348,93.205,107.955,103.424,95.729,105.474z"
   id="path16" />
					<path
   style="fill-rule:evenodd;clip-rule:evenodd;fill:#FFD8B8;"
   d="M54.351,126.05c-1.142,1.029-1.976,0.784-2.376-0.228       c-1.484,1.728-3.896,1.817-4.696,0.93c-1.557-1.729-0.916-4.845,1.432-6.96c2.348-2.116,5.514-2.432,7.071-0.703       C57.34,120.817,56.699,123.933,54.351,126.05z"
   id="path17" />
				</g>
				<g
   id="g20">
					<path
   style="fill:#CAD3D7;"
   d="M40.118,125.214c-2.016-0.3-3.379-0.227-4.052,0.279l-0.005,0.006       c-0.502,0.377-0.645,1.27-0.414,2.741c0.549,3.499-0.972,5.101-3.238,5.753c-1.715,0.493-3.749,0.236-5.38-0.015       c-0.338-0.052-0.54,0.104-0.648,0.395c-0.337,0.905-0.355,2.373-0.199,4.099l-3.809,0.349       c-0.205-2.267-0.142-4.301,0.413-5.788c0.784-2.102,2.285-3.23,4.83-2.838c1.25,0.192,2.783,0.398,3.738,0.123       c0.403-0.116,0.656-0.513,0.504-1.485c-0.471-3.002,0.176-5.093,1.906-6.393l0,0c1.559-1.168,3.868-1.464,6.918-1.011       L40.118,125.214z"
   id="path18" />
					<path
   style="fill:#CAD3D7;"
   d="M43.938,129.447c-1.913,0.689-3.078,1.403-3.435,2.174c-0.263,0.568,0.033,1.421,0.93,2.601       c2.146,2.828,1.563,4.962-0.127,6.612c-1.273,1.244-3.185,1.98-4.739,2.531c-0.325,0.116-0.43,0.35-0.389,0.656       c0.13,0.941,0.813,2.243,1.772,3.697l-3.198,2.121c-1.248-1.89-2.152-3.711-2.37-5.3c-0.306-2.224,0.482-3.928,2.903-4.786       c1.193-0.424,2.643-0.971,3.356-1.668c0.297-0.29,0.332-0.756-0.259-1.534c-1.841-2.426-2.264-4.576-1.355-6.542       c0.815-1.763,2.709-3.117,5.617-4.166L43.938,129.447z"
   id="path19" />
					<path
   style="fill-rule:evenodd;clip-rule:evenodd;fill:#F2F8FA;"
   d="M58.447,130.138c-0.293,0.011-0.58-0.005-0.859-0.046       c-0.136,0.72-0.44,1.418-0.921,2.034c-1.611,2.069-4.595,2.44-6.664,0.829c-0.23-0.18-0.44-0.377-0.629-0.588       c-0.566,0.464-1.248,0.804-2.013,0.968c-2.564,0.549-5.089-1.085-5.638-3.649c-0.062-0.286-0.096-0.572-0.104-0.855       c-0.731-0.009-1.472-0.188-2.163-0.553c-2.317-1.227-3.201-4.102-1.974-6.419c0.137-0.259,0.294-0.5,0.47-0.722       c-0.556-0.477-1.008-1.09-1.302-1.814c-0.986-2.43,0.184-5.199,2.614-6.186c0.271-0.11,0.547-0.193,0.823-0.252       c-0.118-0.722-0.071-1.481,0.169-2.227c0.807-2.495,3.483-3.864,5.979-3.058c0.278,0.09,0.543,0.204,0.793,0.337       c0.373-0.629,0.898-1.181,1.56-1.597c2.223-1.394,5.153-0.722,6.546,1.5c0.156,0.249,0.286,0.506,0.392,0.769       c0.689-0.242,1.446-0.328,2.222-0.221c2.598,0.361,4.41,2.759,4.05,5.358c-0.041,0.289-0.106,0.57-0.195,0.838       c0.686,0.259,1.32,0.68,1.844,1.26c1.758,1.946,1.605,4.949-0.341,6.707c-0.217,0.196-0.447,0.369-0.689,0.518       c0.359,0.638,0.575,1.368,0.604,2.15C63.115,127.841,61.068,130.042,58.447,130.138z"
   id="path20" />
				</g>
				
					<rect
   x="84.262"
   y="81.952"
   transform="matrix(-0.9281 0.3724 -0.3724 -0.9281 207.2536 140.2889)"
   style="fill-rule:evenodd;clip-rule:evenodd;fill:#E7B791;"
   width="11.633"
   height="16.416"
   id="rect20" />
				<path
   style="fill-rule:evenodd;clip-rule:evenodd;fill:#FFEDDE;"
   d="M101.772,126.927c-8.154-10.432-16.03-19.4-15.589-31.313      c3.885,0.938,9.291-0.613,11.055-3.291c3.799,2.51,6.908,2.902,8.42,8.666l6.146,21.647L101.772,126.927z"
   id="path21" />
				
					<ellipse
   transform="matrix(-0.1898 -0.9818 0.9818 -0.1898 19.9887 133.2963)"
   style="fill-rule:evenodd;clip-rule:evenodd;fill:#FFF4C7;"
   cx="64.995"
   cy="58.4"
   rx="15.362"
   ry="15.517"
   id="ellipse21" />
				<g
   id="g26">
					<path
   style="fill-rule:evenodd;clip-rule:evenodd;fill:#FFFFFF;"
   d="M67.879,70.464c0.01,0.05,0.015,0.1,0.016,0.148       c0.127,0.003,0.254,0.035,0.372,0.101c0.397,0.217,0.543,0.716,0.326,1.113c-0.024,0.044-0.053,0.085-0.084,0.123       c0.096,0.083,0.172,0.19,0.221,0.316c0.165,0.423-0.044,0.898-0.466,1.063c-0.047,0.019-0.096,0.032-0.143,0.041       c0.018,0.125,0.009,0.257-0.035,0.385c-0.144,0.429-0.61,0.659-1.039,0.513c-0.049-0.016-0.094-0.036-0.137-0.06       c-0.065,0.108-0.158,0.202-0.273,0.272c-0.387,0.234-0.892,0.112-1.127-0.275c-0.025-0.043-0.048-0.087-0.065-0.133       c-0.12,0.039-0.251,0.053-0.384,0.032c-0.447-0.068-0.756-0.486-0.688-0.935c0.008-0.05,0.021-0.099,0.036-0.145       c-0.117-0.047-0.227-0.121-0.315-0.222c-0.299-0.341-0.266-0.859,0.075-1.158c0.038-0.033,0.078-0.063,0.12-0.087       c-0.061-0.111-0.096-0.238-0.1-0.373c-0.01-0.453,0.35-0.828,0.802-0.839c0.051-0.001,0.101,0.002,0.148,0.011       c0.025-0.125,0.079-0.244,0.164-0.35c0.283-0.354,0.8-0.41,1.152-0.127c0.04,0.031,0.075,0.066,0.107,0.103       c0.099-0.078,0.218-0.136,0.351-0.161C67.358,69.731,67.79,70.02,67.879,70.464z"
   id="path22" />
					<path
   style="fill-rule:evenodd;clip-rule:evenodd;fill:#FFFFFF;"
   d="M68.861,64.916c0.011,0.05,0.016,0.1,0.017,0.148       c0.126,0.003,0.254,0.035,0.372,0.101c0.397,0.217,0.543,0.716,0.325,1.113c-0.024,0.044-0.052,0.085-0.083,0.123       c0.096,0.084,0.172,0.191,0.221,0.316c0.165,0.422-0.044,0.898-0.466,1.063c-0.047,0.018-0.095,0.032-0.144,0.041       c0.02,0.125,0.01,0.256-0.034,0.385c-0.146,0.429-0.61,0.658-1.04,0.514c-0.048-0.016-0.093-0.037-0.136-0.061       c-0.066,0.108-0.158,0.202-0.273,0.272c-0.388,0.235-0.892,0.112-1.127-0.275c-0.026-0.043-0.048-0.088-0.065-0.134       c-0.12,0.041-0.251,0.054-0.385,0.033c-0.447-0.068-0.755-0.487-0.686-0.935c0.007-0.051,0.019-0.099,0.035-0.145       c-0.118-0.046-0.227-0.121-0.316-0.222c-0.299-0.341-0.266-0.859,0.075-1.158c0.037-0.033,0.078-0.063,0.12-0.088       c-0.061-0.11-0.096-0.237-0.099-0.372c-0.011-0.453,0.348-0.828,0.801-0.839c0.051-0.001,0.101,0.002,0.148,0.01       c0.025-0.123,0.079-0.243,0.164-0.349c0.283-0.354,0.799-0.41,1.152-0.127c0.04,0.031,0.076,0.065,0.107,0.103       c0.1-0.079,0.218-0.136,0.351-0.162C68.342,64.184,68.773,64.472,68.861,64.916z"
   id="path23" />
					<path
   style="fill-rule:evenodd;clip-rule:evenodd;fill:#FFFFFF;"
   d="M71.41,59.93c0.01,0.05,0.016,0.099,0.017,0.147       c0.126,0.004,0.253,0.036,0.372,0.102c0.397,0.218,0.543,0.715,0.325,1.112c-0.024,0.045-0.052,0.086-0.083,0.124       c0.095,0.084,0.172,0.191,0.221,0.316c0.164,0.422-0.045,0.897-0.467,1.062c-0.047,0.018-0.095,0.033-0.143,0.042       c0.02,0.125,0.009,0.256-0.034,0.385c-0.146,0.429-0.611,0.658-1.04,0.513c-0.048-0.016-0.094-0.036-0.137-0.06       c-0.065,0.108-0.157,0.202-0.273,0.271c-0.388,0.235-0.893,0.113-1.127-0.274c-0.026-0.043-0.048-0.088-0.066-0.134       c-0.119,0.04-0.25,0.054-0.384,0.033c-0.447-0.068-0.755-0.487-0.687-0.936c0.008-0.05,0.02-0.098,0.036-0.144       c-0.118-0.047-0.227-0.12-0.315-0.222c-0.3-0.341-0.266-0.859,0.075-1.158c0.037-0.033,0.078-0.063,0.119-0.088       c-0.06-0.111-0.096-0.238-0.099-0.373c-0.01-0.452,0.349-0.828,0.802-0.838c0.051-0.002,0.1,0.002,0.148,0.01       c0.024-0.124,0.079-0.244,0.164-0.35c0.283-0.353,0.799-0.41,1.152-0.127c0.04,0.032,0.075,0.066,0.107,0.104       c0.099-0.079,0.217-0.136,0.35-0.162C70.89,59.197,71.321,59.485,71.41,59.93z"
   id="path24" />
					<path
   style="fill-rule:evenodd;clip-rule:evenodd;fill:#FFFFFF;"
   d="M76.389,55.524c0.051-0.002,0.1-0.008,0.147-0.018       c0.031,0.123,0.09,0.24,0.18,0.342c0.299,0.341,0.816,0.374,1.157,0.075c0.038-0.034,0.072-0.069,0.103-0.108       c0.102,0.074,0.224,0.127,0.356,0.146c0.448,0.068,0.866-0.238,0.936-0.687c0.007-0.05,0.011-0.1,0.009-0.147       c0.126-0.01,0.253-0.048,0.368-0.118c0.387-0.235,0.51-0.74,0.274-1.127c-0.026-0.043-0.057-0.083-0.088-0.119       c0.091-0.089,0.162-0.198,0.205-0.327c0.146-0.429-0.084-0.895-0.514-1.039c-0.048-0.017-0.097-0.027-0.145-0.035       c0.014-0.126-0.003-0.257-0.052-0.382c-0.164-0.423-0.64-0.631-1.063-0.467c-0.047,0.019-0.092,0.041-0.133,0.066       c-0.07-0.105-0.167-0.194-0.285-0.26c-0.397-0.218-0.896-0.071-1.113,0.325c-0.024,0.045-0.044,0.09-0.06,0.137       c-0.121-0.034-0.253-0.041-0.385-0.016c-0.444,0.089-0.733,0.522-0.644,0.965c0.009,0.05,0.023,0.098,0.041,0.143       c-0.115,0.052-0.22,0.131-0.305,0.236c-0.283,0.354-0.227,0.87,0.127,1.153c0.04,0.031,0.081,0.059,0.124,0.082       c-0.056,0.114-0.085,0.241-0.082,0.377C75.561,55.176,75.936,55.534,76.389,55.524z"
   id="path25" />
					<path
   style="fill-rule:evenodd;clip-rule:evenodd;fill:#FFFFFF;"
   d="M72.077,59.098c0.05-0.001,0.1-0.007,0.148-0.017       c0.031,0.123,0.09,0.24,0.18,0.342c0.299,0.34,0.816,0.374,1.157,0.074c0.038-0.033,0.072-0.068,0.103-0.108       c0.103,0.074,0.224,0.126,0.356,0.147c0.448,0.068,0.866-0.239,0.936-0.687c0.007-0.05,0.011-0.1,0.009-0.148       c0.126-0.01,0.252-0.048,0.368-0.117c0.387-0.235,0.51-0.74,0.274-1.128c-0.026-0.042-0.056-0.082-0.088-0.119       c0.09-0.088,0.162-0.198,0.205-0.326c0.145-0.429-0.084-0.895-0.514-1.039c-0.047-0.017-0.096-0.028-0.144-0.035       c0.014-0.126-0.003-0.256-0.052-0.383c-0.164-0.422-0.64-0.631-1.062-0.466c-0.048,0.019-0.092,0.04-0.134,0.065       c-0.07-0.104-0.167-0.193-0.285-0.259c-0.397-0.218-0.896-0.072-1.113,0.325c-0.024,0.045-0.044,0.09-0.06,0.137       c-0.121-0.035-0.253-0.042-0.385-0.016c-0.444,0.089-0.733,0.521-0.644,0.965c0.009,0.05,0.023,0.098,0.041,0.143       c-0.114,0.052-0.22,0.131-0.305,0.236c-0.283,0.354-0.227,0.869,0.127,1.153c0.04,0.031,0.081,0.059,0.124,0.081       c-0.056,0.114-0.085,0.242-0.082,0.377C71.248,58.749,71.624,59.108,72.077,59.098z"
   id="path26" />
				</g>
				
					<ellipse
   transform="matrix(-0.1897 -0.9818 0.9818 -0.1897 32.4305 170.9575)"
   style="fill-rule:evenodd;clip-rule:evenodd;fill:#FFD8B8;"
   cx="86.756"
   cy="72.097"
   rx="19.555"
   ry="20.202"
   id="ellipse26" />
				<path
   style="fill-rule:evenodd;clip-rule:evenodd;fill:#F2F8FA;"
   d="M88.968,108.561c1.338-0.511,7.675-12.951,14.185-13.097      c1.095,1.693,2.001,3.599,2.506,5.524l6.084,21.428l0.062,0.22l-11.102,4.454C96.313,121.633,92.033,116.009,88.968,108.561z"
   id="path27" />
				<g
   id="g29">
					<path
   style="fill-rule:evenodd;clip-rule:evenodd;fill:#FFD8B8;"
   d="M102.832,99.488c8.166,9.183,19.638,17.317,33.701,23.328       l-1.73,3.82c-13.849-3.851-31.238-13.521-38.336-19.851C87.986,99.227,94.596,90.225,102.832,99.488z"
   id="path28" />
					<path
   style="fill-rule:evenodd;clip-rule:evenodd;fill:#FFD8B8;"
   d="M139.761,120.339c1.479,0.42,1.715,1.256,1.07,2.133       c2.254,0.338,3.611,2.332,3.285,3.482c-0.637,2.237-3.615,3.352-6.656,2.489c-3.041-0.863-4.99-3.377-4.355-5.614       C133.74,120.59,136.72,119.476,139.761,120.339z"
   id="path29" />
				</g>
				
					<ellipse
   transform="matrix(0.4667 -0.8844 0.8844 0.4667 -131.214 202.5028)"
   style="fill-rule:evenodd;clip-rule:evenodd;fill:#CAD3D7;"
   cx="102.302"
   cy="210.05"
   rx="4.212"
   ry="8.387"
   id="ellipse29" />
				<g
   id="g34">
					<path
   style="fill-rule:evenodd;clip-rule:evenodd;fill:#F2F8FA;"
   d="M105.816,118.699c24.771,10.955,2.23,26.602,13.979,36.631       c7.877,6.726,6.877,14.493,0.105,23.608c-4.173,5.619-3.104,8.032,2.103,16.02c3.662,5.617,4.461,16.537-6.085,17.252       c-10.547,0.715-80.146-30.862-86.08-38.07c-5.934-7.209,0.981-15.513,7.601-16.582c9.413-1.521,12.645-2.256,15.176-8.846       c3.593-9.354,9.259-15.759,17.537-15.806C85.785,132.816,81.046,107.743,105.816,118.699z"
   id="path30" />
					<path
   style="fill-rule:evenodd;clip-rule:evenodd;fill:#F2F8FA;"
   d="M105.814,118.698c18.333,8.108-0.812,25.256,7.42,33.729       c5.519,5.682,3.988,13.216-2.188,22.595c-3.808,5.781-3.202,7.989,0.105,15.137c2.326,5.025,1.902,15.404-6.422,17.104       c-8.323,1.698-59.759-21.846-63.71-28.178c-3.951-6.332,2.26-14.947,7.542-16.607c7.514-2.361,10.114-3.376,12.727-9.928       c3.712-9.302,8.762-15.979,15.245-16.82C88.779,134.141,87.48,110.59,105.814,118.698z"
   id="path31" />
					<path
   style="fill-rule:evenodd;clip-rule:evenodd;fill:#F2F8FA;"
   d="M105.813,118.697c14.864,6.574-2.45,24.532,3.885,32.167       c4.248,5.119,2.433,12.526-3.423,22.048c-3.609,5.868-3.254,7.966-0.97,14.66c1.605,4.707,0.521,14.795-6.604,17.023       c-7.124,2.229-48.771-16.986-51.654-22.845c-2.882-5.859,2.949-14.643,7.512-16.622c6.489-2.814,8.749-3.979,11.408-10.511       c3.774-9.273,8.493-16.098,14.01-17.367C90.394,134.854,90.948,112.124,105.813,118.697z"
   id="path32" />
					<path
   style="fill-rule:evenodd;clip-rule:evenodd;fill:#F2F8FA;"
   d="M105.811,118.696c8.77,3.879-5.331,23.258-2.326,29.42       c2.015,4.132-0.302,11.318-5.594,21.089c-3.261,6.021-3.346,7.925-2.86,13.823c0.341,4.148-1.901,13.724-6.921,16.883       c-5.02,3.16-29.469-8.449-30.475-13.478c-1.005-5.029,4.158-14.108,7.457-16.645c4.69-3.61,6.352-5.039,9.09-11.537       c3.887-9.224,8.021-16.306,11.839-18.326C93.229,136.108,97.041,114.818,105.811,118.696z"
   id="path33" />
					<path
   style="fill-rule:evenodd;clip-rule:evenodd;fill:#F2F8FA;"
   d="M105.81,118.696c4.92,2.176-7.15,22.453-6.249,27.685       c0.604,3.508-2.028,10.554-6.964,20.482c-3.042,6.118-3.404,7.898-4.056,13.296c-0.457,3.794-3.432,13.046-7.121,16.794       c-3.689,3.748-17.277-3.058-17.098-7.563c0.181-4.505,4.922-13.77,7.422-16.661c3.555-4.112,4.838-5.709,7.626-12.184       c3.957-9.192,7.724-16.438,10.468-18.933C95.02,136.9,100.89,116.52,105.81,118.696z"
   id="path34" />
				</g>
				<path
   style="fill-rule:evenodd;clip-rule:evenodd;fill:#FFF4C7;"
   d="M99.234,56.608c-7.969,1.885-19.239,18.678-20.484,33.555      c-12.591-5.145-15.832-18.453-8.533-29.325C76.766,51.083,90.7,49.31,99.234,56.608z"
   id="path35" />
				
					<ellipse
   transform="matrix(-0.4065 -0.9137 0.9137 -0.4065 45.8905 183.0004)"
   style="fill-rule:evenodd;clip-rule:evenodd;fill:#FFD8B8;"
   cx="82.385"
   cy="76.595"
   rx="5.761"
   ry="3.686"
   id="ellipse35" />
				<path
   style="fill-rule:evenodd;clip-rule:evenodd;fill:#FFF4C7;"
   d="M101.059,101.39c-5.068-0.781-8.094-5.334-6.443-9.26      c1.65-3.927,1.43-6.625-2.296-9.031c-3.726-2.407-4.631-6.742-1.786-9.147c2.845-2.405,4.598-2.813,2.753-7.055      c-1.845-4.243,1.263-8.117,5.847-10.474c-6.182,1.838-13.948,1.807-13.343,8.82c0.605,7.014-0.773,4.188-1.942,7      c-1.169,2.811,0.818,9.885,5.099,12.292c4.281,2.407,4.951,3.909,3.301,7.836C90.596,96.298,93.481,102.343,101.059,101.39z"
   id="path36" />
				<path
   style="opacity:0.5;fill-rule:evenodd;clip-rule:evenodd;fill:#FFFFFF;"
   d="M72.954,44.478      c-20.772,16.874-33.771,49.381-35.536,78.014c-0.173-0.073-0.347-0.145-0.52-0.218C20.534,115.289,7.881,103.271,0,88.842      C11.325,65.216,41.426,29.647,72.954,44.478z"
   id="path37" />
				
					<ellipse
   transform="matrix(-0.1898 -0.9818 0.9818 -0.1898 52.4578 181.9301)"
   style="fill-rule:evenodd;clip-rule:evenodd;fill:#666666;"
   cx="101.295"
   cy="69.32"
   rx="2.468"
   ry="1.41"
   id="ellipse37" />
				<path
   style="fill-rule:evenodd;clip-rule:evenodd;fill:#E7B791;"
   d="M106.401,76.356c-3.092,0.563-6.183,0.974-8.24,1.051      c1.986,1.625,4.48,2.452,6.976,2.554C105.674,78.807,106.1,77.6,106.401,76.356z"
   id="path38" />
				
					<ellipse
   transform="matrix(0.8923 0.4514 -0.4514 0.8923 81.9342 5.8862)"
   style="fill-rule:evenodd;clip-rule:evenodd;fill:#CAD3D7;"
   cx="28.629"
   cy="174.688"
   rx="4.212"
   ry="8.388"
   id="ellipse38" />
			</g>
			<g
   id="g48">
				<circle
   style="fill-rule:evenodd;clip-rule:evenodd;fill:#FFD8B8;"
   cx="87.342"
   cy="101.044"
   r="0.59"
   id="circle38" />
				<circle
   style="fill-rule:evenodd;clip-rule:evenodd;fill:#FFD8B8;"
   cx="90.193"
   cy="99.976"
   r="0.59"
   id="circle39" />
				<circle
   style="fill-rule:evenodd;clip-rule:evenodd;fill:#FFD8B8;"
   cx="95.894"
   cy="97.839"
   r="0.59"
   id="circle40" />
				<path
   style="fill-rule:evenodd;clip-rule:evenodd;fill:#FFD8B8;"
   d="M98.538,96.218c0.306-0.113,0.645,0.041,0.76,0.346      c0.031,0.084,0.042,0.17,0.036,0.253c-0.25,0.163-0.499,0.338-0.745,0.523c-0.177-0.048-0.327-0.178-0.396-0.362      C98.078,96.673,98.233,96.333,98.538,96.218z"
   id="path40" />
				<path
   style="fill-rule:evenodd;clip-rule:evenodd;fill:#FFD8B8;"
   d="M101.39,95.15c0.305-0.114,0.645,0.04,0.759,0.346      c0.011,0.026,0.019,0.054,0.025,0.082c-0.378,0.077-0.755,0.19-1.128,0.338l-0.003-0.006      C100.93,95.604,101.084,95.265,101.39,95.15z"
   id="path41" />
				<path
   style="fill-rule:evenodd;clip-rule:evenodd;fill:#FFD8B8;"
   d="M87.024,103.132c0.091,0.065,0.164,0.158,0.206,0.271      c0.056,0.147,0.048,0.304-0.01,0.438C87.152,103.605,87.087,103.369,87.024,103.132z"
   id="path42" />
				<circle
   style="fill-rule:evenodd;clip-rule:evenodd;fill:#FFD8B8;"
   cx="89.528"
   cy="102.541"
   r="0.59"
   id="circle42" />
				<circle
   style="fill-rule:evenodd;clip-rule:evenodd;fill:#FFD8B8;"
   cx="92.38"
   cy="101.473"
   r="0.59"
   id="circle43" />
				<circle
   style="fill-rule:evenodd;clip-rule:evenodd;fill:#FFD8B8;"
   cx="88.002"
   cy="98.468"
   r="0.59"
   id="circle44" />
				<circle
   style="fill-rule:evenodd;clip-rule:evenodd;fill:#FFD8B8;"
   cx="90.854"
   cy="97.399"
   r="0.59"
   id="circle45" />
				<circle
   style="fill-rule:evenodd;clip-rule:evenodd;fill:#FFD8B8;"
   cx="96.555"
   cy="95.263"
   r="0.59"
   id="circle46" />
				<path
   style="fill-rule:evenodd;clip-rule:evenodd;fill:#FFD8B8;"
   d="M99.925,93.915c0.013,0.022,0.023,0.047,0.033,0.072      c0.114,0.306-0.04,0.646-0.346,0.76c-0.305,0.115-0.645-0.04-0.76-0.346c-0.082-0.219-0.025-0.457,0.127-0.615      c0.255,0.012,0.512,0.02,0.77,0.029L99.925,93.915z"
   id="path46" />
				<path
   style="fill-rule:evenodd;clip-rule:evenodd;fill:#FFD8B8;"
   d="M88.713,104.704c0.306-0.115,0.646,0.04,0.76,0.346      c0.082,0.217,0.026,0.453-0.122,0.611c-0.12,0.04-0.24,0.082-0.36,0.127l-0.141,0.055c-0.212-0.026-0.402-0.166-0.481-0.379      C88.254,105.158,88.408,104.818,88.713,104.704z"
   id="path47" />
				<path
   style="fill-rule:evenodd;clip-rule:evenodd;fill:#FFD8B8;"
   d="M91.564,103.636c0.305-0.114,0.645,0.04,0.76,0.346      c0.025,0.067,0.037,0.136,0.037,0.203l-0.409,0.565c-0.299,0.096-0.622-0.058-0.733-0.354      C91.104,104.09,91.259,103.75,91.564,103.636z"
   id="path48" />
			</g>
		</g>
	</g>
</g>
<path
   style="fill:#5e3a1d;stroke-width:0.224866;fill-opacity:1"
   d="m 97.126381,101.10725 c -3.116704,-0.84035 -5.156039,-3.318392 -5.156039,-6.265217 0,-0.615648 0.265625,-1.971315 0.590278,-3.01259 1.066312,-3.420033 0.567379,-4.78499 -2.414361,-6.605092 -4.244184,-2.590719 -6.62528,-6.775037 -6.451395,-11.337094 l 0.06786,-1.780274 -0.991049,-0.524607 c -2.661253,-1.408718 -4.709895,0.327698 -4.476556,3.794301 0.106632,1.584152 1.028399,3.885347 1.874841,4.680537 0.503559,0.473067 0.510483,0.527055 0.196992,1.535738 -0.539321,1.735305 -1.162374,4.533718 -1.446851,6.498445 -0.147735,1.020331 -0.330128,1.855147 -0.405319,1.855147 -0.07519,0 -0.864517,-0.364483 -1.754054,-0.809964 -2.082487,-1.042908 -4.857065,-3.267564 -6.1878,-4.961377 -2.903091,-3.695173 -4.003361,-6.90941 -4.009156,-11.712018 -0.0033,-2.749581 -0.0043,-2.754613 -0.537956,-2.754613 -0.294048,0 -0.660603,0.151785 -0.814566,0.337299 -0.153964,0.185515 -0.414573,0.3373 -0.57913,0.3373 -0.516108,0 -1.001813,2.303763 -0.545202,2.585963 0.123676,0.07644 0.224866,0.27516 0.224866,0.441606 0,0.632563 -3.778137,-0.187583 -6.183825,-1.342367 -1.593692,-0.765008 -4.60976,-3.064186 -4.60976,-3.514067 0,-0.318897 1.916234,-3.506838 3.901777,-6.49119 3.933952,-5.912891 8.434699,-11.210145 12.928439,-15.216414 l 2.10147,-1.873507 0.695621,0.393555 c 1.082687,0.612541 3.876516,3.339232 4.741418,4.627475 0.774228,1.153189 0.779011,1.753329 0.01055,1.323275 -0.622235,-0.348219 -2.060462,0.504558 -2.458797,1.45791 -0.266788,0.638514 -0.275609,0.934728 -0.04941,1.659483 0.151439,0.485227 0.353429,0.882232 0.448867,0.882232 0.09544,0 0.703236,-0.297906 1.350664,-0.662013 1.834705,-1.03182 5.040553,-2.004488 7.545454,-2.289324 4.636346,-0.527206 9.661435,0.762289 13.292493,3.411005 l 0.9969,0.727199 -1.04519,0.53118 c -1.521974,0.773489 -3.791125,2.992554 -4.507064,4.407578 -0.983702,1.944254 -1.015905,3.136419 -0.156111,5.779158 0.920603,2.829648 0.844882,3.412515 -0.619466,4.768333 -0.584518,0.541195 -1.43402,1.286414 -1.887787,1.656042 -3.143517,2.560643 -2.504186,6.596482 1.51537,9.565901 1.801184,1.330613 2.545184,2.22872 2.93116,3.538301 0.413304,1.4023 0.310918,2.234074 -0.624764,5.075465 -0.5184,1.574231 -0.624998,2.210698 -0.50843,3.035696 0.399925,2.8304 2.40408,5.174274 5.287368,6.183614 l 0.994109,0.348 -1.124329,-0.004 c -0.618382,-0.002 -1.586834,-0.12915 -2.152117,-0.28157 z M 85.89895,69.622614 c 0,-0.123676 -0.148567,-0.02844 -0.330149,0.211629 -0.18158,0.240072 -0.330147,0.537685 -0.330147,0.661361 0,0.123677 0.148567,0.02844 0.330147,-0.211628 0.181582,-0.240072 0.330149,-0.537685 0.330149,-0.661362 z M 67.453088,66.729817 c 0.385313,-1.20287 0.697925,-2.256869 0.694693,-2.342219 -0.0032,-0.08535 -0.413463,-0.193169 -0.911622,-0.239597 -0.666735,-0.06214 -0.941082,0.0077 -1.039655,0.264547 -0.07365,0.19193 -0.271309,0.348964 -0.43924,0.348964 -0.305806,0 -0.811052,0.724793 -0.738223,1.059006 0.0213,0.09777 -0.0311,0.334893 -0.116444,0.526946 -0.24249,0.545653 0.46123,1.95131 1.149259,2.295606 0.341561,0.170918 0.638939,0.302443 0.660841,0.292272 0.0219,-0.01017 0.355077,-1.002654 0.740391,-2.205525 z m 1.580102,-3.765346 c 0.153255,-0.369991 0.717274,-1.302993 1.253375,-2.073338 0.609677,-0.87607 0.884321,-1.456504 0.73333,-1.549822 -0.380912,-0.235416 -1.962152,-0.196974 -2.115677,0.05144 -0.07634,0.123519 -0.381943,0.317023 -0.679121,0.43001 -0.350002,0.13307 -0.541535,0.385603 -0.543766,0.716945 -0.0019,0.281333 -0.09656,0.658723 -0.210379,0.838644 -0.134113,0.21201 -0.09954,0.52854 0.09824,0.899466 0.167846,0.314785 0.360531,0.749418 0.428188,0.965852 0.190643,0.609857 0.727493,0.465155 1.035812,-0.279193 z m 4.358333,-5.554519 c 0.880775,-0.827769 1.632309,-1.627854 1.670075,-1.777965 0.08137,-0.323405 -0.293328,-0.587133 -0.946644,-0.666294 -0.259171,-0.0314 -0.635256,-0.122782 -0.835743,-0.203064 -0.205138,-0.08214 -0.517658,0.0072 -0.714754,0.204264 -0.192627,0.192627 -0.51242,0.350232 -0.71065,0.350232 -0.198231,0 -0.417014,0.177082 -0.486185,0.393516 -0.06917,0.216434 -0.234186,0.619897 -0.366699,0.896585 -0.277395,0.579205 0.13043,2.307761 0.54448,2.307761 0.134592,0 0.965346,-0.677266 1.84612,-1.505035 z"
   id="path51" /><path
   style="fill:#aa9586;fill-opacity:1;stroke-width:0.224866"
   d="m 52.424203,67.356101 c -1.80568,-2.514366 -2.798564,-5.661712 -2.804769,-8.890847 -0.0052,-2.711905 0.318452,-4.086025 1.586383,-6.735042 0.860667,-1.798143 1.315951,-2.42274 2.957794,-4.057747 1.563964,-1.557451 2.311465,-2.11123 3.85191,-2.853648 1.05125,-0.506651 2.639669,-1.083924 3.529818,-1.282829 2.02005,-0.451384 5.131993,-0.459971 7.001175,-0.01932 1.603174,0.377941 3.685621,1.21646 3.587687,1.44462 -0.03549,0.08269 -1.063431,1.048987 -2.284307,2.147326 -3.636474,3.27149 -7.585043,7.819378 -11.129084,12.818271 -1.825327,2.574635 -4.555164,6.85305 -5.011207,7.853955 -0.144979,0.318192 -0.331392,0.578534 -0.414251,0.578534 -0.08286,0 -0.474876,-0.451474 -0.871149,-1.003273 z"
   id="path52" /><path
   style="fill:#ffe540;fill-opacity:1;stroke-width:0.224866"
   d="m 170.39875,80.867603 c -5.89367,-3.548985 -9.48451,-9.054044 -10.32233,-15.825008 -0.79412,-6.417794 1.80759,-13.322761 6.71372,-17.818346 2.74408,-2.514449 5.72339,-4.169744 10.28888,-5.716461 4.20684,-1.425212 5.95455,-1.814493 11.13412,-2.479986 2.4117,-0.309864 4.90641,-0.718963 5.54382,-0.90911 1.68571,-0.50287 3.59223,-2.020758 5.0249,-4.000609 0.68022,-0.940019 1.30176,-1.71547 1.3812,-1.723226 0.0794,-0.0078 0.319,0.698278 0.53237,1.568964 0.52767,2.153189 0.38989,5.290846 -0.29982,6.827957 -0.27218,0.606576 -0.46486,1.132881 -0.42817,1.169566 0.23029,0.230291 2.30042,-1.171358 3.77857,-2.558396 l 1.74256,-1.635162 0.14933,1.635162 c 0.462,5.058858 -1.71606,8.758763 -6.65142,11.298881 -4.71827,2.428387 -7.18906,4.220206 -11.3355,8.220522 -1.6078,1.551135 -3.82911,3.656484 -4.93625,4.678558 l -2.01298,1.858314 -0.42665,-0.831608 c -0.64944,-1.265889 -2.4411,-2.939383 -3.48027,-3.250724 -2.42117,-0.725399 -4.31693,1.119077 -4.32108,4.204182 -0.002,1.25254 0.7332,3.555565 1.54063,4.828095 l 0.65855,1.037895 -0.96937,1.392919 c -2.2875,3.287002 -2.81,5.743881 -1.78495,8.392991 0.21953,0.567331 -0.0975,0.491112 -1.51986,-0.36537 z"
   id="path53" /><path
   style="fill:#0085da;fill-opacity:1;stroke-width:0.224866"
   d="m 197.3613,62.070919 c -1.42633,-1.695099 -0.62491,-5.237734 0.93735,-4.143486 0.73188,0.512632 1.15781,1.515189 1.15781,2.725283 0,1.9679 -1.04017,2.671986 -2.09516,1.418203 z"
   id="path54" /></svg>
