<?xml version="1.0" encoding="UTF-8" standalone="no"?>
<!-- Uploaded to: SVG Repo, www.svgrepo.com, Generator: SVG Repo Mixer Tools -->

<svg
   version="1.1"
   id="Capa_1"
   viewBox="0 0 194.678 194.678"
   xml:space="preserve"
   sodipodi:docname="wedding-couple.svg"
   inkscape:version="1.3.1 (9b9bdc1480, 2023-11-25, custom)"
   xmlns:inkscape="http://www.inkscape.org/namespaces/inkscape"
   xmlns:sodipodi="http://sodipodi.sourceforge.net/DTD/sodipodi-0.dtd"
   xmlns="http://www.w3.org/2000/svg"
   xmlns:svg="http://www.w3.org/2000/svg"><defs
   id="defs35" /><sodipodi:namedview
   id="namedview35"
   pagecolor="#ffffff"
   bordercolor="#000000"
   borderopacity="0.25"
   inkscape:showpageshadow="2"
   inkscape:pageopacity="0.0"
   inkscape:pagecheckerboard="0"
   inkscape:deskcolor="#d1d1d1"
   inkscape:zoom="5.6760396"
   inkscape:cx="97.338997"
   inkscape:cy="83.244662"
   inkscape:window-width="2560"
   inkscape:window-height="1305"
   inkscape:window-x="0"
   inkscape:window-y="0"
   inkscape:window-maximized="1"
   inkscape:current-layer="Capa_1" />
<g
   id="g35">
	<g
   id="g34">
		<rect
   x="131.535"
   y="46.71"
   style="fill-rule:evenodd;clip-rule:evenodd;fill:#C79369;"
   width="10.319"
   height="16.417"
   id="rect1" />
		<path
   style="fill-rule:evenodd;clip-rule:evenodd;fill:#D9ECED;"
   d="M59.313,14.882c24.467-4.861,50.477,21.265,59.715,59.055    C108.345,86.435,93.49,95.591,76.039,99.058c-17.452,3.468-34.679,0.687-49.328-6.778C20.798,53.829,34.845,19.743,59.313,14.882z    "
   id="path1" />
		<path
   style="fill-rule:evenodd;clip-rule:evenodd;fill:#080808;"
   d="M126.089,66.091c-4.188,12.807-13.251,30.371-24.757,42.571    l3.412,3.084c12.237-9.936,25.822-27.867,30.188-37.339C140.147,63.093,130.314,53.172,126.089,66.091z"
   id="path2" />
		<path
   style="fill-rule:evenodd;clip-rule:evenodd;fill:#C79369;"
   d="M80.479,75.872c5.564,10.958,16.183,25.521,28.254,34.909    l-2.644,3.255C93.674,106.79,78.927,92.527,73.67,84.601C67.391,75.133,74.868,64.819,80.479,75.872z"
   id="path3" />
		<rect
   x="64.569"
   y="59.731"
   style="fill-rule:evenodd;clip-rule:evenodd;fill:#C79369;"
   width="11.633"
   height="16.416"
   id="rect3" />
		<path
   style="fill-rule:evenodd;clip-rule:evenodd;fill:#E7B791;"
   d="M66.492,106.171l-3.99-21.567L64.57,69.42    c3.808,0.627,7.687,0.606,11.633,0c2.696,1.381,5.353,8.459,4.609,14.371l-2.358,22.378L66.492,106.171z"
   id="path4" />
		<path
   style="fill-rule:evenodd;clip-rule:evenodd;fill:#F5F0F0;"
   d="M71.72,103.708c24.945,0,45.366,30.695,47.062,69.56    c-12.914,10.177-29.269,16.262-47.062,16.262s-34.147-6.085-47.06-16.262C26.355,134.403,46.775,103.708,71.72,103.708z"
   id="path5" />
		<path
   style="fill-rule:evenodd;clip-rule:evenodd;fill:#F5F0F0;"
   d="M62.502,84.604c1.432,0.025,11.945-9.162,18.041-6.873    c0.385,1.98,0.517,4.085,0.268,6.061l-2.334,22.153l-0.024,0.226H66.492L62.502,84.604z"
   id="path6" />
		<path
   style="fill-rule:evenodd;clip-rule:evenodd;fill:#E7B791;"
   d="M74.982,76.605c5.563,10.957,16.182,25.521,28.254,34.909    l-2.644,3.255c-12.416-7.245-27.162-21.508-32.42-29.434C61.893,75.866,69.37,65.552,74.982,76.605z"
   id="path7" />
		<path
   style="fill-rule:evenodd;clip-rule:evenodd;fill:#E7B791;"
   d="M104.692,109.432c1.27,0.867,1.229,1.735,0.34,2.362    c2.03,1.035,2.686,3.356,2.012,4.344c-1.312,1.921-4.49,2.034-7.102,0.252c-2.61-1.781-3.663-4.784-2.352-6.705    C98.902,107.763,102.082,107.65,104.692,109.432z"
   id="path8" />
		<path
   style="fill-rule:evenodd;clip-rule:evenodd;fill:#F5F0F0;"
   d="M75.622,194.678c4.62,0,8.388-1.893,8.388-4.212    c0-2.32-3.768-4.213-8.388-4.213c-4.619,0-8.387,1.893-8.387,4.213C67.235,192.785,71.002,194.678,75.622,194.678z"
   id="path9" />
		<rect
   x="131.814"
   y="55.701"
   style="fill-rule:evenodd;clip-rule:evenodd;fill:#F5F0F0;"
   width="10.696"
   height="5.655"
   id="rect9" />
		<g
   id="g10">
			<path
   style="fill-rule:evenodd;clip-rule:evenodd;fill:#323232;"
   d="M128.217,189.278l-2.566-55.118l-0.019-12.87L125.62,117     h14.801c-1.082,24.093-2.165,48.186-3.247,72.278C134.188,189.278,131.202,189.278,128.217,189.278z"
   id="path10" />
			<polygon
   style="fill-rule:evenodd;clip-rule:evenodd;fill:#323232;"
   points="125.62,117 125.826,117 125.632,121.291      125.632,121.29    "
   id="polygon10" />
		</g>
		<polygon
   style="fill-rule:evenodd;clip-rule:evenodd;fill:#1A1A1A;"
   points="121.967,116.276 146.757,116.276 147.082,121.29     121.984,121.29   "
   id="polygon11" />
		<polygon
   style="fill-rule:evenodd;clip-rule:evenodd;fill:#323232;"
   points="146.977,119.622 142.548,57.87 134.471,59.656     122.676,90.369 121.956,119.507   "
   id="polygon12" />
		<path
   style="fill-rule:evenodd;clip-rule:evenodd;fill:#F5F0F0;"
   d="M132.881,56.893c-1.256,19.334-0.809,28.651-9.456,35.447    l-0.024-8.282l7.52-20.958l0.894-7.399L132.881,56.893z"
   id="path12" />
		<path
   style="fill-rule:evenodd;clip-rule:evenodd;fill:#323232;"
   d="M132.633,55.701l0.068,11.329l-0.566,1.948l-5.705,18.319    l-4.351,9.802l1.01-13.642l7.83-20.357l0.601-6.408c0.091-0.974,0.014-1.064,0.014-1.064L132.633,55.701z"
   id="path13" />
		<path
   style="fill-rule:evenodd;clip-rule:evenodd;fill:#1A1A1A;"
   d="M130.188,65.776c-4.188,12.808-13.25,30.372-24.756,42.571    l3.411,3.084c12.237-9.936,25.822-27.867,30.188-37.339C144.247,62.778,134.414,52.857,130.188,65.776z"
   id="path14" />
		<path
   style="fill-rule:evenodd;clip-rule:evenodd;fill:#E7B791;"
   d="M103.505,106.336c-1.23,1.153-1.041,2.087,0.027,2.617    c-2.025,1.462-2.347,4.088-1.45,5.045c1.744,1.861,5.208,1.45,7.737-0.92c2.53-2.369,3.167-5.799,1.423-7.66    C109.499,103.556,106.035,103.967,103.505,106.336z"
   id="path15" />
		<path
   style="fill-rule:evenodd;clip-rule:evenodd;fill:#1A1A1A;"
   d="M127.977,194.678c5.065,0,9.196-2.074,9.196-4.619    c0-2.544-4.131-4.619-9.196-4.619c-5.065,0-9.197,2.075-9.197,4.619C118.78,192.604,122.912,194.678,127.977,194.678z"
   id="path16" />
		<g
   id="g24">
			
				<ellipse
   transform="matrix(0.4058 -0.914 0.914 0.4058 63.9225 174.1767)"
   style="fill-rule:evenodd;clip-rule:evenodd;fill:#E7B791;"
   cx="165.917"
   cy="37.927"
   rx="5.761"
   ry="3.687"
   id="ellipse16" />
			
				<ellipse
   transform="matrix(-0.0375 -0.9993 0.9993 -0.0375 92.4203 139.7655)"
   style="fill-rule:evenodd;clip-rule:evenodd;fill:#E7B791;"
   cx="113.517"
   cy="25.376"
   rx="5.761"
   ry="3.687"
   id="ellipse17" />
			
				<ellipse
   transform="matrix(0.189 -0.982 0.982 0.189 79.1957 163.8767)"
   style="fill-rule:evenodd;clip-rule:evenodd;fill:#E7B791;"
   cx="138.811"
   cy="33.992"
   rx="20.727"
   ry="26.889"
   id="ellipse18" />
			
				<ellipse
   transform="matrix(0.189 -0.982 0.982 0.189 76.4443 153.5189)"
   style="fill-rule:evenodd;clip-rule:evenodd;fill:#3446ff;fill-opacity:1"
   cx="131.162"
   cy="30.48"
   rx="2.615"
   ry="1.495"
   id="ellipse19" />
			
				<ellipse
   transform="matrix(0.189 -0.982 0.982 0.189 86.4311 171.7897)"
   style="fill-rule:evenodd;clip-rule:evenodd;fill:#323232;"
   cx="147.215"
   cy="33.57"
   rx="2.615"
   ry="1.495"
   id="ellipse20" />
			<path
   style="fill-rule:evenodd;clip-rule:evenodd;fill:#ccd36c;fill-opacity:1"
   d="M162.592,18.972c-12.984-3.059-38.038,13.644-50.383,5.633     c5.62-15.617,23.913-21.469,37.539-16.417C154.778,10.052,159.206,12.612,162.592,18.972z"
   id="path20" />
			<path
   style="fill-rule:evenodd;clip-rule:evenodd;fill:#5E3A1D;"
   d="M153.732,11.56c-4.768,10.599,3.729,24.999,12.185,26.367     C169.041,29.027,163.126,15.104,153.732,11.56z"
   id="path21" />
			<path
   style="fill-rule:evenodd;clip-rule:evenodd;fill:#C79369;"
   d="M146.068,43.235c-3.939,0.004-13.225-1.85-17.428-3.354     C132.08,46.115,141.429,48.107,146.068,43.235z"
   id="path22" />
			<path
   style="fill-rule:evenodd;clip-rule:evenodd;fill:#5E3A1D;"
   d="M162.502,19.442c-17.631-7.753-46.984,10.972-50.17-11.64     c8.487,5.206,10.152,1.994,19.706-0.955C141.673,3.874,154.97,5.3,162.502,19.442z"
   id="path23" />
			<path
   style="fill-rule:evenodd;clip-rule:evenodd;fill:#5E3A1D;"
   d="M163.929,24.466c-14.961-12.13-48.214-1.814-45.32-24.466     c6.813,7.261,9.267,4.602,19.259,4.279C147.947,3.954,160.396,8.837,163.929,24.466z"
   id="path24" />
		</g>
		<g
   id="g33">
			
				<ellipse
   transform="matrix(-0.2053 -0.9787 0.9787 -0.2053 44.8152 100.0053)"
   style="fill-rule:evenodd;clip-rule:evenodd;fill:#5E3A1D;"
   cx="63.008"
   cy="31.808"
   rx="15.362"
   ry="15.518"
   id="ellipse24" />
			
				<ellipse
   transform="matrix(-0.2054 -0.9787 0.9787 -0.2054 42.4163 104.6742)"
   style="fill-rule:evenodd;clip-rule:evenodd;fill:#F5F0F0;"
   cx="63.703"
   cy="35.117"
   rx="11.981"
   ry="17.539"
   id="ellipse25" />
			
				<ellipse
   transform="matrix(-0.2054 -0.9787 0.9787 -0.2054 41.6345 106.1945)"
   style="fill-rule:evenodd;clip-rule:evenodd;fill:#5E3A1D;"
   cx="63.929"
   cy="36.195"
   rx="10.88"
   ry="19.508"
   id="ellipse26" />
			
				<ellipse
   transform="matrix(-0.2053 -0.9787 0.9787 -0.2053 33.0311 122.4824)"
   style="fill-rule:evenodd;clip-rule:evenodd;fill:#E7B791;"
   cx="66.241"
   cy="47.831"
   rx="19.555"
   ry="22.062"
   id="ellipse27" />
			<g
   id="g29">
				
					<ellipse
   transform="matrix(-0.2054 -0.9787 0.9787 -0.2054 44.0847 127.1889)"
   style="fill-rule:evenodd;clip-rule:evenodd;fill:#323232;"
   cx="73.673"
   cy="45.699"
   rx="2.467"
   ry="1.41"
   id="ellipse28" />
				
					<ellipse
   transform="matrix(-0.2054 -0.9787 0.9787 -0.2054 22.7881 116.2327)"
   style="fill-rule:evenodd;clip-rule:evenodd;fill:#323232;"
   cx="58.578"
   cy="48.866"
   rx="2.467"
   ry="1.41"
   id="ellipse29" />
			</g>
			<path
   style="fill-rule:evenodd;clip-rule:evenodd;fill:#C79369;"
   d="M76.44,53.229c-3.632,1.527-12.911,3.407-17.369,3.644     C64.653,61.293,74.045,59.517,76.44,53.229z"
   id="path29" />
			
				<ellipse
   transform="matrix(-0.421 -0.9071 0.9071 -0.421 15.3867 114.6916)"
   style="fill-rule:evenodd;clip-rule:evenodd;fill:#E7B791;"
   cx="44.3"
   cy="52.435"
   rx="5.761"
   ry="3.687"
   id="ellipse30" />
			
				<ellipse
   transform="matrix(0.0208 -0.9998 0.9998 0.0208 42.7054 130.6582)"
   style="fill-rule:evenodd;clip-rule:evenodd;fill:#E7B791;"
   cx="88.058"
   cy="43.527"
   rx="5.761"
   ry="3.687"
   id="ellipse31" />
			<g
   id="g32">
				<path
   style="fill-rule:evenodd;clip-rule:evenodd;fill:#5E3A1D;"
   d="M66.898,26.857c11.75,4.016,18.951,19.031,24.862,15.793      C88.484,30.148,75.27,23.2,66.898,26.857z"
   id="path31" />
				<path
   style="fill-rule:evenodd;clip-rule:evenodd;fill:#5E3A1D;"
   d="M78.602,27.264C61.219,29.935,55.479,55.51,40.407,52.625      C37.811,33.535,57.515,20.765,78.602,27.264z"
   id="path32" />
			</g>
		</g>
	</g>
</g>
<path
   style="fill:#ffe540;fill-opacity:1;stroke-width:0.176179"
   d="m 164.72753,37.542805 c -4.60205,-1.46318 -9.05224,-6.543486 -11.10143,-12.673329 -0.55742,-1.667441 -1.14302,-4.394325 -1.14302,-5.322544 0,-0.463723 -0.49298,-0.603726 -5.03372,-1.429541 l -2.60222,-0.473262 -3.36133,0.38766 c -1.84873,0.213214 -4.7091,0.556471 -6.35638,0.762794 -2.29772,0.287793 -4.04103,0.379071 -7.48761,0.392041 -4.1307,0.01555 -4.61972,-0.01546 -6.07106,-0.384962 -2.52389,-0.642559 -4.02038,-1.45417 -5.55681,-3.013711 -0.74527,-0.756482 -1.5633,-1.802133 -1.87624,-2.398333 -0.58555,-1.115559 -1.35007,-3.383776 -1.55067,-4.6006307 l -0.11947,-0.7246884 2.08152,1.0354322 c 1.24914,0.621369 2.5747,1.1389169 3.31478,1.2942119 1.24692,0.261647 3.25932,0.357335 3.25932,0.154978 0,-0.06045 -0.31186,-0.5769257 -0.69302,-1.1477119 -1.4913,-2.2332478 -2.22011,-5.5290788 -1.83843,-8.3137703 l 0.11125,-0.81162161 1.45681,1.35961441 c 1.67973,1.5676534 3.01731,2.4250884 4.65296,2.9827041 1.41653,0.4829138 4.00026,0.5332679 7.69921,0.1500492 4.05063,-0.4196541 6.69449,-0.505351 8.87182,-0.287568 8.65338,0.8655345 15.27672,4.9985263 19.50036,12.1683151 0.48519,0.823638 1.24101,2.052488 1.6796,2.730778 2.90756,4.496688 4.38694,9.999715 3.99201,14.849479 -0.15129,1.857793 -0.58862,3.566953 -0.90821,3.549459 -0.11841,-0.0065 -0.53242,-0.112611 -0.92002,-0.235843 z"
   id="path35" /><path
   style="fill:#ffe540;fill-opacity:1;stroke-width:0.176179"
   d="m 117.21808,26.426723 c -1.49299,-0.282942 -3.40881,-0.954476 -4.3074,-1.509835 l -0.58321,-0.360446 0.34188,-0.867366 c 0.80093,-2.031969 2.16125,-4.401566 3.55267,-6.188554 l 0.50295,-0.645933 0.99928,0.601738 c 2.27919,1.372453 4.25555,1.835998 8.35744,1.960188 3.47405,0.105182 5.72384,-0.05302 12.21897,-0.859243 5.93001,-0.736073 7.02762,-0.734596 10.70288,0.0144 1.62305,0.330768 2.951,0.650345 2.951,0.710173 0,0.05983 -1.07484,0.370858 -2.38854,0.691179 -1.31369,0.32032 -5.02006,1.373247 -8.23637,2.339837 -11.15144,3.351317 -15.04347,4.198677 -19.766,4.303391 -2.13019,0.04723 -3.38501,-0.0075 -4.34555,-0.189529 z"
   id="path36" /><path
   style="fill:#006eb4;fill-opacity:1;stroke-width:0.176179"
   d="m 146.23519,35.683433 c -0.4177,-0.461554 -0.54459,-1.759844 -0.2684,-2.74628 0.25845,-0.923096 1.03302,-1.841528 1.55308,-1.841528 0.618,0 1.08727,0.811115 1.08727,1.8793 0,2.141036 -1.41906,3.761444 -2.37195,2.708508 z"
   id="path37" /><path
   style="fill:#0085da;fill-opacity:1;stroke-width:0.176179"
   d="m 130.50102,32.915681 c -0.38956,-0.15674 -0.74505,-1.068439 -0.74505,-1.910781 0,-1.584189 1.16371,-3.298947 2.01668,-2.971631 0.45193,0.173424 0.80218,1.030047 0.80218,1.96194 0,1.063347 -0.6962,2.545319 -1.33179,2.834911 -0.24562,0.111912 -0.46267,0.197217 -0.48233,0.189567 -0.0197,-0.0076 -0.13653,-0.05445 -0.25969,-0.104006 z"
   id="path38" /><path
   style="fill:#0085da;fill-opacity:1;stroke-width:0.176179"
   d="m 146.23871,35.460904 c -0.16925,-0.241634 -0.27426,-0.770688 -0.27426,-1.381723 0,-2.447262 2.00662,-3.860842 2.44974,-1.725744 0.42886,2.06637 -1.23751,4.446614 -2.17548,3.107467 z"
   id="path39" /><path
   style="fill:#0085da;fill-opacity:1;stroke-width:0.176179"
   d="m 130.18789,32.428687 c -0.79081,-1.206929 0.18743,-4.328108 1.35652,-4.328108 0.8715,0 1.19459,2.165777 0.52027,3.487555 -0.67895,1.330841 -1.35666,1.634368 -1.87679,0.840553 z"
   id="path40" /></svg>
