<?xml version="1.0" encoding="UTF-8" standalone="no"?>
<!-- Uploaded to: SVG Repo, www.svgrepo.com, Generator: SVG Repo Mixer Tools -->

<svg
   version="1.1"
   id="Capa_1"
   viewBox="0 0 188.131 188.131"
   xml:space="preserve"
   sodipodi:docname="wedding-couple-svgrepo-com.svg"
   inkscape:version="1.4.1-rc (d9e8dc1fe0, 2025-03-10)"
   xmlns:inkscape="http://www.inkscape.org/namespaces/inkscape"
   xmlns:sodipodi="http://sodipodi.sourceforge.net/DTD/sodipodi-0.dtd"
   xmlns="http://www.w3.org/2000/svg"
   xmlns:svg="http://www.w3.org/2000/svg"><defs
   id="defs22">
	
</defs><sodipodi:namedview
   id="namedview22"
   pagecolor="#ffffff"
   bordercolor="#000000"
   borderopacity="0.25"
   inkscape:showpageshadow="2"
   inkscape:pageopacity="0.0"
   inkscape:pagecheckerboard="0"
   inkscape:deskcolor="#d1d1d1"
   inkscape:zoom="5.8469897"
   inkscape:cx="94.065498"
   inkscape:cy="94.065498"
   inkscape:window-width="2560"
   inkscape:window-height="1305"
   inkscape:window-x="0"
   inkscape:window-y="0"
   inkscape:window-maximized="1"
   inkscape:current-layer="Capa_1" />
<g
   id="g21">
		
			<rect
   x="104.422"
   y="45.700001"
   transform="matrix(-0.9557,-0.2943,0.2943,-0.9557,199.7254,137.8756)"
   style="clip-rule:evenodd;fill:#c79369;fill-rule:evenodd"
   width="11.632"
   height="16.417"
   id="rect1" />
		<path
   style="clip-rule:evenodd;fill:#e7b791;fill-rule:evenodd"
   d="m 95.263,89.301 2.535,-21.787 6.444,-13.901 c 3.455,1.72 7.169,2.842 11.117,3.424 2.171,2.114 2.627,9.659 0.176,15.091 l -8.84,20.694 z"
   id="path1" />
		
			<ellipse
   transform="matrix(-0.0173,-0.9999,0.9999,-0.0173,75.4214,108.1348)"
   style="clip-rule:evenodd;fill:#5e3a1d;fill-rule:evenodd"
   cx="90.850998"
   cy="17.003"
   rx="15.362"
   ry="15.517"
   id="ellipse1" />
		
			<ellipse
   transform="matrix(-0.0173,-0.9999,0.9999,-0.0173,77.317,135.4257)"
   style="clip-rule:evenodd;fill:#f5f0f0;fill-rule:evenodd"
   cx="105.21"
   cy="29.716999"
   rx="15.363"
   ry="15.518"
   id="ellipse2" />
		
			<ellipse
   transform="matrix(-0.0173,-0.9999,0.9999,-0.0173,77.5715,144.7472)"
   style="clip-rule:evenodd;fill:#e7b791;fill-rule:evenodd"
   cx="109.919"
   cy="34.251999"
   rx="19.555"
   ry="20.202999"
   id="ellipse3" />
		<path
   style="clip-rule:evenodd;fill:#f5f0f0;fill-rule:evenodd"
   d="m 105.521,90.937 c 11.144,22.318 -7.195,54.3 -41.21,73.18 C 49.437,157.109 36.687,145.195 28.739,129.276 20.791,113.358 18.928,96.007 22.264,79.908 57.792,64.062 94.377,68.62 105.521,90.937 Z"
   id="path3" />
		<path
   style="clip-rule:evenodd;fill:#f5f0f0;fill-rule:evenodd"
   d="m 97.798,67.514 c 1.361,0.445 14.113,-5.239 19.265,-1.258 -0.214,2.006 -0.708,4.057 -1.527,5.871 l -8.75,20.484 -0.09,0.21 L 95.263,89.3 Z"
   id="path4" />
		
			<ellipse
   transform="matrix(0.3161,-0.9487,0.9487,0.3161,-99.4956,99.3645)"
   style="clip-rule:evenodd;fill:#f5f0f0;fill-rule:evenodd"
   cx="19.174999"
   cy="118.696"
   rx="4.2119999"
   ry="8.3879995"
   id="ellipse4" />
		<path
   style="clip-rule:evenodd;fill:#5e3a1d;fill-rule:evenodd"
   d="M 124.535,20.739 C 112.573,38.388 102.709,36.226 98.912,50.665 93.474,47.245 89.837,41.354 89.72,34.602 89.533,23.804 98.426,14.893 109.582,14.701 c 5.869,-0.102 11.195,2.231 14.953,6.038 z"
   id="path5" />
		
			<ellipse
   transform="matrix(-0.2426,-0.9701,0.9701,-0.2426,93.4684,148.8319)"
   style="clip-rule:evenodd;fill:#e7b791;fill-rule:evenodd"
   cx="104.835"
   cy="37.928001"
   rx="5.7610002"
   ry="3.687"
   id="ellipse5" />
		<path
   style="clip-rule:evenodd;opacity:0.5;fill:#f5f0f0;fill-rule:evenodd"
   d="M 101.396,3.969 C 80.137,20.224 66.187,52.334 63.58,80.903 63.409,80.826 63.238,80.749 63.067,80.67 46.916,73.206 34.622,60.822 27.168,46.166 39.184,22.884 70.318,-11.784 101.396,3.969 Z"
   id="path6" />
		
			<ellipse
   transform="matrix(-0.0172,-0.9999,0.9999,-0.0172,92.8409,159.3145)"
   style="clip-rule:evenodd;fill:#323232;fill-rule:evenodd"
   cx="124.719"
   cy="34.028999"
   rx="2.467"
   ry="1.41"
   id="ellipse6" />
		<path
   style="clip-rule:evenodd;fill:#c79369;fill-rule:evenodd"
   d="m 128.533,41.841 c -3.143,0.021 -6.258,-0.108 -8.298,-0.388 1.676,1.943 3.99,3.189 6.43,3.72 0.729,-1.044 1.355,-2.159 1.868,-3.332 z"
   id="path7" />
		<g
   id="g8">
			<polygon
   style="clip-rule:evenodd;fill:#323232;fill-rule:evenodd"
   points="110.921,114.072 111.673,109.849 126.238,112.489 118.317,147.226 105.465,146.724 108.645,126.74 "
   id="polygon7" />
			<polygon
   style="clip-rule:evenodd;fill:#323232;fill-rule:evenodd"
   points="110.921,114.074 110.921,114.072 111.673,109.849 111.876,109.886 "
   id="polygon8" />
		</g>
		<g
   id="g9">
			<path
   style="clip-rule:evenodd;fill:#323232;fill-rule:evenodd"
   d="m 121.803,181.829 -16.338,-35.104 12.508,-2.89 12.142,34.656 c -2.77,1.112 -5.541,2.225 -8.312,3.338 z"
   id="path8" />
			
				<ellipse
   transform="matrix(-0.3726,-0.928,0.928,-0.3726,-2.202,363.7972)"
   style="clip-rule:evenodd;fill:#1a1a1a;fill-rule:evenodd"
   cx="121.872"
   cy="182.64301"
   rx="4.619"
   ry="9.1960001"
   id="ellipse8" />
		</g>
		
			<rect
   x="145.233"
   y="59.117001"
   transform="matrix(-0.8939,-0.4482,0.4482,-0.8939,257.4265,184.808)"
   style="clip-rule:evenodd;fill:#f5f0f0;fill-rule:evenodd"
   width="10.696"
   height="5.6539998"
   id="rect9" />
		<polygon
   style="clip-rule:evenodd;fill:#1a1a1a;fill-rule:evenodd"
   points="131.317,122.494 108.881,111.245 111.114,106.756 133.274,117.868 "
   id="polygon9" />
		<polygon
   style="clip-rule:evenodd;fill:#323232;fill-rule:evenodd"
   points="147.669,61.746 123.36,83.913 109.656,109.638 131.971,120.956 155.69,63.769 "
   id="polygon10" />
		<path
   style="clip-rule:evenodd;fill:#f5f0f0;fill-rule:evenodd"
   d="m 147.486,58.563 c -9.788,16.721 -13.565,25.25 -24.34,27.449 l 3.689,-7.415 16.115,-15.364 4.116,-6.214 z"
   id="path10" />
		<path
   style="clip-rule:evenodd;fill:#323232;fill-rule:evenodd"
   d="m 148.31,56.351 -5.528,11.193 -1.377,1.488 -13.313,13.818 -8.281,6.813 7.017,-11.742 16.123,-14.689 3.41,-5.459 c 0.519,-0.83 1.625,-4.476 1.625,-4.476 z"
   id="path11" />
		<path
   style="clip-rule:evenodd;fill:#1a1a1a;fill-rule:evenodd"
   d="m 143.88,66.049 c -12.036,6.058 -30.882,12.013 -47.646,12.453 l 0.219,4.594 c 15.673,1.674 37.968,-1.331 47.764,-4.912 11.7,-4.277 11.805,-18.246 -0.337,-12.135 z"
   id="path12" />
		<g
   id="g14">
			
				<ellipse
   transform="matrix(0.2525,-0.9676,0.9676,0.2525,77.4662,179.4987)"
   style="clip-rule:evenodd;fill:#e7b791;fill-rule:evenodd"
   cx="154.912"
   cy="39.610001"
   rx="21.444"
   ry="22.153999"
   id="ellipse12" />
			<path
   style="clip-rule:evenodd;fill:#5e3a1d;fill-rule:evenodd"
   d="m 142.83,21.43 c 1.621,15.764 26.73,28.216 19.569,38.515 6.678,-2.238 12.078,-7.576 13.948,-14.74 2.99,-11.458 -4.182,-23.253 -16.021,-26.342 -6.229,-1.626 -12.507,-0.517 -17.496,2.567 z"
   id="path13" />
			
				<ellipse
   transform="matrix(0.4645,-0.8856,0.8856,0.4645,45.6404,165.1565)"
   style="clip-rule:evenodd;fill:#e7b791;fill-rule:evenodd"
   cx="159.379"
   cy="44.841"
   rx="6.3169999"
   ry="4.0430002"
   id="ellipse13" />
			
				<ellipse
   transform="matrix(0.2525,-0.9676,0.9676,0.2525,69.6562,161.2579)"
   style="clip-rule:evenodd;fill:#323232;fill-rule:evenodd"
   cx="139.198"
   cy="35.546001"
   rx="2.7049999"
   ry="1.546"
   id="ellipse14" />
			<path
   style="clip-rule:evenodd;fill:#c79369;fill-rule:evenodd"
   d="m 133.115,42.884 c 3.343,0.835 6.696,1.502 8.943,1.732 -2.288,1.638 -5.077,2.367 -7.814,2.302 -0.507,-1.3 -0.887,-2.651 -1.129,-4.034 z"
   id="path14" />
		</g>
		<path
   style="clip-rule:evenodd;fill:#e7b791;fill-rule:evenodd"
   d="m 99.264,74.107 c -1.668,-0.931 -2.61,-0.402 -2.813,0.934 -2.276,-1.682 -3.575,1.662 -4.298,2.959 -1.406,2.523 -1.412,3.337 2.017,5.248 3.431,1.911 7.351,1.415 8.758,-1.109 1.405,-2.525 -0.234,-6.121 -3.664,-8.032 z"
   id="path15" />
		<path
   style="clip-rule:evenodd;fill:#e7b791;fill-rule:evenodd"
   d="m 153.381,62.857 c 1.491,0.374 1.754,1.203 1.137,2.099 2.262,0.269 1.181,2.945 0.891,4.104 -0.566,2.257 -1.012,2.737 -4.077,1.969 -3.065,-0.77 -5.092,-3.223 -4.525,-5.479 0.565,-2.257 3.509,-3.463 6.574,-2.693 z"
   id="path16" />
		<path
   style="clip-rule:evenodd;fill:#e7b791;fill-rule:evenodd"
   d="m 127.658,68.565 c 4.564,0.316 17.803,-2.523 21.995,-4.162 l 0.785,3.782 c -3.938,2.603 -19.686,6.777 -24.411,7.659 z"
   id="path17" />
		<path
   style="clip-rule:evenodd;fill:#e7b791;fill-rule:evenodd"
   d="m 108.544,61.707 c 4.751,1.925 14.031,6.045 20.409,7.361 l -2.838,6.745 C 120.087,75.477 112.623,72.686 109.082,71.709 99.171,68.978 98.147,57.497 108.544,61.707 Z"
   id="path18" />
		<path
   style="clip-rule:evenodd;fill:#5e3a1d;fill-rule:evenodd"
   d="M 170.856,42.565 C 160.563,27.711 127.898,28.274 136.451,8.628 c 4.231,8.33 7.14,6.578 16.228,8.91 9.164,2.352 19.097,10.02 18.177,25.027 z"
   id="path19" />
		<path
   style="clip-rule:evenodd;fill:#5e3a1d;fill-rule:evenodd"
   d="m 171.195,43.663 c -7.678,-16.361 -39.981,-21.242 -28.277,-39.19 2.786,8.918 5.945,7.675 14.518,11.487 8.645,3.845 17.163,13.059 13.759,27.703 z"
   id="path20" />
		<path
   style="clip-rule:evenodd;fill:#5e3a1d;fill-rule:evenodd"
   d="m 138.36,22.073 c 3.9,3.139 7.354,6.493 10.717,12.463 3.696,6.561 24.125,-8.397 16.561,-13.693 -7.566,-5.297 -17.31,-9.747 -27.278,1.23 z"
   id="path21" />
	</g>
<path
   style="fill:#ffe540;stroke-width:0.171028;fill-opacity:1"
   d="m 163.19729,58.638574 c 1.0074,-2.494059 0.56176,-5.232716 -1.37124,-8.426922 l -0.61199,-1.01129 0.68548,-0.778739 c 1.24427,-1.413569 2.202,-3.904645 2.202,-5.727469 0,-2.49697 -1.64638,-4.174348 -3.71987,-3.789916 -1.33768,0.248013 -3.09016,1.573868 -4.18829,3.168694 l -0.2944,0.42757 -0.71417,-0.769626 c -3.50521,-3.777423 -7.34262,-8.668779 -9.13583,-11.644998 -1.23952,-2.057246 -2.59024,-3.617892 -4.93158,-5.698038 -3.57993,-3.180553 -4.74894,-4.646579 -5.52844,-6.933078 -0.67797,-1.988687 -0.43771,-5.360098 0.5596,-7.8526172 l 0.2836,-0.7088086 0.87931,1.4923318 c 0.81962,1.391042 3.21723,4.178166 3.42038,3.976062 0.0498,-0.04958 0.0105,-0.434397 -0.0875,-0.855141 -0.27446,-1.179038 -0.0632,-3.6458785 0.43619,-5.0927303 0.49881,-1.445223 1.6633,-3.6822575 1.81966,-3.4956397 0.0586,0.069912 0.36816,0.8176863 0.68795,1.6617211 0.69447,1.832888 1.88291,3.7143349 2.89161,4.5777449 1.06879,0.914839 2.95651,1.831223 6.24835,3.033224 4.99676,1.824542 8.50609,3.710922 13.84873,7.444156 2.65951,1.858358 4.5144,3.568723 6.00768,5.539575 1.55474,2.05196 3.0171,5.076267 3.68917,7.629594 0.50494,1.918394 0.54073,2.247675 0.54836,5.045332 0.007,2.578412 -0.0473,3.21805 -0.39186,4.61776 -1.01284,4.113813 -2.73518,7.198383 -5.64303,10.106237 -0.90219,0.902187 -2.2324,2.036762 -2.95603,2.521278 -1.25942,0.843262 -3.92233,2.257473 -4.69559,2.493723 -0.36592,0.111798 -0.36568,0.108092 0.0617,-0.94999 z"
   id="path22" /><path
   style="fill:#0085da;fill-opacity:1;stroke-width:0.171028"
   d="m 138.14892,37.75447 c -0.83246,-0.894756 -0.54357,-3.083137 0.55158,-4.178281 0.68506,-0.685061 1.14286,-0.718245 1.61571,-0.117115 0.80151,1.018953 0.15461,3.819481 -1.02293,4.428408 -0.63935,0.330621 -0.72195,0.32102 -1.14436,-0.133012 z"
   id="path23" /></svg>
